<svg width="335" height="477" viewBox="0 0 335 477" fill="none" xmlns="http://www.w3.org/2000/svg">
<path fill-rule="evenodd" clip-rule="evenodd" d="M160.872 84.765C153.641 89.1217 146.536 91.2267 143.201 90.3674C134.838 88.2126 134.069 57.6308 140.54 45.5745C147.011 33.5182 180.276 28.2633 181.953 52.1507C182.535 60.4412 179.053 67.84 173.907 73.8773L183.133 116.862H156.333L160.872 84.765Z" fill="#57331F"/>
<path fill-rule="evenodd" clip-rule="evenodd" d="M159.532 54.7885C157.214 51.3383 154.988 48.7066 152.093 47.1783C140.311 47.3644 138.932 45.2531 138.932 38.137C140.835 36.7759 147.55 34.4839 155.069 33.8392C158.905 32.7419 163.449 32.9483 167.827 34.7786C173.231 36.3112 177.806 39.6118 179.827 45.7912C187.14 58.4051 181.59 71.5359 174.11 76.0213C172.119 73.6636 170.382 71.3786 168.832 69.1913C170.077 67.9752 170.85 66.278 170.85 64.4003C170.85 60.7015 167.85 57.7031 164.15 57.7031C163.878 57.7031 163.61 57.7193 163.346 57.7508C163.18 62.3752 162.494 78.021 160.694 83.4556C158.572 89.8628 146.19 91.436 141.871 91.436C138.141 91.436 138.268 87.9052 138.359 85.3747C138.372 85.0103 138.385 84.6666 138.385 84.3572C138.385 83.7108 139.226 83.7125 140.176 83.7144C141.41 83.7168 142.828 83.7196 142.828 82.3043C142.828 80.7616 140.695 79.5782 138.787 78.5193C137.596 77.8586 136.493 77.2464 136.049 76.6255C134.649 74.6669 134.178 72.0252 136.29 72.0252C137.444 72.0252 139.028 72.6904 140.933 73.4907C143.81 74.6989 147.419 76.215 151.391 76.215C157.953 76.215 159.513 55.0507 159.532 54.7885Z" fill="#191847"/>
<path fill-rule="evenodd" clip-rule="evenodd" d="M185.367 209.507L130.559 348.17L93.799 465.398H79.2834L135.481 209.507L185.367 209.507Z" fill="#3D2216"/>
<path fill-rule="evenodd" clip-rule="evenodd" d="M196.403 209.507C196.987 258.234 205.498 323.838 206.858 326.875C208.218 329.912 300.745 404.127 300.745 404.127L290.748 414.821C290.748 414.821 181.574 351.192 176.522 342.705C171.47 334.218 155.022 256.124 141.817 209.507H196.403Z" fill="#57331F"/>
<path fill-rule="evenodd" clip-rule="evenodd" d="M299.207 401.882C299.529 400.756 300.713 400.088 301.815 400.485C304.054 401.294 307.517 402.67 309.022 403.932C311.335 405.873 315.128 410.367 315.128 410.367C312.875 413.05 274.644 458.594 274.644 458.594C274.644 458.594 266.848 455.259 269.752 450.793C272.657 446.327 274.506 443.313 274.506 443.313L283.358 412.397C283.513 411.855 284.085 411.549 284.622 411.719L289.443 413.247C289.443 413.247 294.34 410.966 296.308 408.621C297.553 407.138 298.603 403.993 299.207 401.882Z" fill="#E4E4E4"/>
<path fill-rule="evenodd" clip-rule="evenodd" d="M96.8802 458.636C97.9493 458.159 99.2222 458.636 99.6254 459.735C100.445 461.969 101.617 465.506 101.617 467.469C101.617 470.488 100.61 476.281 100.61 476.281C97.1063 476.281 37.6283 476.281 37.6283 476.281C37.6283 476.281 35.1733 468.168 40.4627 467.521C45.752 466.874 49.2506 466.353 49.2506 466.353L78.6339 453.259C79.1484 453.03 79.7506 453.27 79.9654 453.791L81.8928 458.465C81.8928 458.465 86.7894 460.748 89.8507 460.748C91.7878 460.748 94.8743 459.53 96.8802 458.636Z" fill="#E4E4E4"/>
<path fill-rule="evenodd" clip-rule="evenodd" d="M148.517 453.324L79.5017 445.837L130.65 209.507H192.464L148.517 453.324Z" fill="#69A1AC"/>
<path fill-rule="evenodd" clip-rule="evenodd" d="M286.47 386.873L241.2 440.435C241.2 440.435 169.678 362.352 157.804 338.536C145.931 314.721 136.458 209.507 136.458 209.507H206.049C206.049 209.507 211.224 302.07 213.026 306.377C214.828 310.684 286.47 386.873 286.47 386.873Z" fill="#89C5CC"/>
<path fill-rule="evenodd" clip-rule="evenodd" d="M261.972 259.635C258.7 252.999 242.351 167.594 242.351 167.594L217.898 167.685C217.898 167.685 245.834 258.155 247.556 262.422C249.794 267.965 245.993 276.02 243.415 281.481C243.017 282.326 242.647 283.108 242.334 283.81C245.91 285.41 247.628 283.476 249.439 281.438C251.485 279.136 253.65 276.699 258.745 279.069C260.714 279.985 262.577 281.067 264.397 282.125C270.684 285.777 276.459 289.133 284.316 284.287C285.561 283.519 286.926 280.626 283.628 278.366C275.412 272.735 263.572 262.879 261.972 259.635ZM56.0333 226.357L87.6661 195.511L98.1725 213.683L65.2786 233.068C57.0307 246.055 52.1866 251.667 50.7462 249.903C49.5318 248.415 50.0884 246.785 50.6011 245.283C51.0005 244.113 51.3733 243.021 50.8613 242.136C49.6923 240.114 43.0882 241.272 36.868 242.639C30.6479 244.005 32.0872 240.951 33.4092 239.357C39.2879 234.615 46.8293 230.282 56.0333 226.357Z" fill="#57331F"/>
<path fill-rule="evenodd" clip-rule="evenodd" d="M167.841 98.2573L158.185 96.6018C142.974 150.349 64.8197 186.986 60.0219 207.078C58.2624 214.446 63.5676 218.171 60.8272 220.415L73.3781 229.599C75.5034 227.12 80.039 231.655 89.5106 228.483C98.9823 225.311 167.841 161.899 167.841 98.2573Z" fill="#191847"/>
<path fill-rule="evenodd" clip-rule="evenodd" d="M185.48 87.0036C187.684 86.8495 189.595 88.5111 189.749 90.7149L190.239 97.7169C208.411 111.696 253.45 153.466 265.187 231.225C266.42 239.394 264.19 243.769 262.409 247.264C261.19 249.656 260.181 251.635 260.634 254.137L244.208 258.669C244.208 256.822 242.138 255.417 239.467 253.605C235.584 250.97 230.43 247.472 228.525 240.502C226.718 233.894 224.074 225.641 220.914 216.461C220.615 228.619 218.309 239.802 213.283 249.063C200.746 272.17 128.295 246.83 120.726 223.257C116.687 210.678 122.418 200.118 129.998 186.151C139.62 168.422 152.221 145.205 151.598 105.403L150.761 93.4401C150.607 91.2363 152.268 89.325 154.472 89.1709L185.48 87.0036Z" fill="#2F3676"/>
</svg>
