<svg width="154" height="216" viewBox="0 0 154 216" fill="none" xmlns="http://www.w3.org/2000/svg">
<path fill-rule="evenodd" clip-rule="evenodd" d="M73.695 13.6899C80.0325 13.6899 85.17 18.8275 85.17 25.1649V34.6656C85.17 40.414 80.9433 45.1751 75.4282 46.0106C75.4256 46.0575 75.423 46.1046 75.4202 46.152H60.6302C58.1151 43.7088 60.9577 27.1376 62.73 21.6456C63.0111 20.7746 63.2823 20.1781 63.5487 19.8003C65.4743 16.1658 69.2955 13.6899 73.695 13.6899Z" fill="#191847"/>
<path fill-rule="evenodd" clip-rule="evenodd" d="M73.473 38.152C70.1704 40.1311 66.9254 41.0873 65.4022 40.6969C61.5827 39.7181 61.2315 25.8262 64.1869 20.3496C67.1422 14.8729 82.3352 12.4859 83.101 23.3368C83.3668 27.1028 81.7762 30.4637 79.4262 33.2062L83.64 52.7324H71.4L73.473 38.152Z" fill="#D4A181"/>
<path fill-rule="evenodd" clip-rule="evenodd" d="M84.7207 23.4002C84.3653 23.0509 84.0214 22.7129 83.6803 22.4103L83.6967 22.0162C83.6967 22.0162 79.8551 14.1973 73.9493 14.1973C68.0488 14.1973 66.1827 16.9245 64.5965 19.2427L64.5922 19.249C65.4219 22.0794 67.9225 23.2245 70.7505 24.5196C71.9679 25.0771 73.246 25.6624 74.4775 26.4218C74.9599 26.0321 75.5751 25.7985 76.2451 25.7985C77.7943 25.7985 79.0501 27.0471 79.0501 28.5873C79.0501 30.1275 77.7943 31.376 76.2451 31.376C76.2024 31.376 76.1598 31.3751 76.1176 31.3732C75.5536 37.3958 75.7796 44.2736 77.4602 45.9062H92.2503C92.6748 38.5723 90.7666 36.4802 88.8166 34.3423C86.9819 32.3308 85.1103 30.2788 85.1103 23.7817C84.9786 23.6538 84.8489 23.5263 84.7207 23.4003L84.7207 23.4002Z" fill="#191847"/>
<path fill-rule="evenodd" clip-rule="evenodd" d="M103.322 144.552C103.322 144.552 84.9702 149.655 71.6552 149.655C58.3402 149.655 46.92 141.796 46.92 141.796C46.92 141.796 64.879 136.558 76.5 136.558C88.1211 136.558 103.322 144.552 103.322 144.552Z" fill="#1F28CF"/>
<path fill-rule="evenodd" clip-rule="evenodd" d="M61.0639 154.559C61.1818 154.382 61.2815 154.191 61.3605 153.983C62.9958 149.683 89.1903 103.297 91.7999 94.8169H62.3086C60.3245 101.265 51.3942 141.728 50.1374 149.801C46.172 162.536 38.0076 203.778 36.9653 206.635C35.8689 209.641 42.0381 212.772 43.6821 209.077C46.2979 203.197 52.5306 186.929 55.3058 176.995C57.9075 167.683 60.026 159.305 61.0639 154.559Z" fill="#BA8B72"/>
<path fill-rule="evenodd" clip-rule="evenodd" d="M85.1919 160.222C97.1676 163.231 140.972 168.671 143.978 169.525C147.071 170.403 149.782 164.066 145.96 162.693C139.878 160.509 123.12 155.462 112.959 153.403C104.786 151.746 97.3289 150.394 92.3221 149.603C92.7463 135.62 94.6852 102.064 93.4143 94.8169H67.32C68.5387 101.767 78.8409 152.477 80.7557 157.552C81.3633 159.365 83.1765 160.165 85.1919 160.222Z" fill="#D4A181"/>
<path fill-rule="evenodd" clip-rule="evenodd" d="M145.105 163.347C144.89 162.193 145.574 161.01 146.738 160.853C147.632 160.732 148.599 160.653 149.198 160.758C150.556 160.996 153.083 161.903 153.083 161.903C152.805 163.47 148.088 190.067 148.088 190.067C148.088 190.067 144.243 190.524 144.371 188.108C144.499 185.692 144.542 184.086 144.542 184.086L141.119 170.462C140.981 169.915 141.324 169.361 141.877 169.24L143.582 168.868C143.582 168.868 144.998 166.858 145.24 165.489C145.34 164.929 145.248 164.114 145.105 163.347Z" fill="#E4E4E4"/>
<path fill-rule="evenodd" clip-rule="evenodd" d="M43.1605 208.43C44.2541 208.022 45.5283 208.486 45.8863 209.597C46.1625 210.454 46.41 211.391 46.41 211.997C46.41 213.369 45.9503 216 45.9503 216C44.35 216 17.1854 216 17.1854 216C17.1854 216 16.0642 212.315 18.4799 212.021C20.8957 211.727 22.4935 211.49 22.4935 211.49L35.4058 205.767C35.9194 205.54 36.5196 205.779 36.7348 206.298L37.4017 207.907C37.4017 207.907 39.6381 208.944 41.0363 208.944C41.6148 208.944 42.4178 208.708 43.1605 208.43Z" fill="#E4E4E4"/>
<path fill-rule="evenodd" clip-rule="evenodd" d="M93.33 94.8169C93.33 94.8169 76.0816 89.9107 60.69 94.8169C57.12 111.011 48.4454 117.438 46.92 142.265C64.26 150.831 85.68 136.156 103.53 144.51C108.63 132.825 101.49 104.686 93.33 94.8169Z" fill="#2B44FF"/>
<path fill-rule="evenodd" clip-rule="evenodd" d="M23.7238 71.962L43.8601 74.6927L40.2473 83.6619L23.9084 77.2218C16.8659 77.9126 13.4605 77.7463 13.6922 76.7229C13.8876 75.8601 14.6362 75.5996 15.3257 75.3596C15.8628 75.1727 16.3641 74.9982 16.5401 74.5612C16.9421 73.5632 14.6528 71.4946 12.3966 69.6245C10.1403 67.7545 11.6549 67.4104 12.6069 67.438C15.9901 68.2265 19.6957 69.7345 23.7238 71.962ZM121.687 121.136C120.193 118.122 107.116 79.3264 107.116 79.3264L95.9478 79.3681C95.9478 79.3681 114.316 120.464 115.103 122.403C116.125 124.921 114.389 128.579 113.212 131.06C113.03 131.444 112.861 131.8 112.718 132.118C114.351 132.845 115.136 131.967 115.963 131.041C116.897 129.995 117.886 128.888 120.213 129.965C121.112 130.381 121.963 130.872 122.794 131.353C125.666 133.012 128.303 134.536 131.892 132.335C132.461 131.986 133.084 130.672 131.578 129.645C127.825 127.087 122.418 122.61 121.687 121.136Z" fill="#D4A181"/>
<path fill-rule="evenodd" clip-rule="evenodd" d="M76.5259 44.1127L67.7819 44.6918C65.6285 64.0614 53.8987 76.2961 27.6364 72.1541L24.1474 97.0979C48.6934 100.252 70.2204 90.4816 74.6322 64.0285C75.7743 57.1806 76.6761 50.0541 76.5259 44.1127Z" fill="#AFB9C5"/>
<path fill-rule="evenodd" clip-rule="evenodd" d="M120.155 116.112C114.084 83.9983 101.271 59.1532 81.7143 41.5771H80.8752H80.8466L80.8397 41.5852L67.5915 44.6018C67.5915 60.4235 64.0511 72.2454 60.6472 83.6111C59.1773 88.5193 57.7329 93.3424 56.61 98.3659H92.3897C92.8937 104.121 93.2033 110.037 93.3645 116.112H120.155Z" fill="#C5CFD6"/>
<path fill-rule="evenodd" clip-rule="evenodd" d="M92.3898 98.3657C91.3636 86.6482 89.5313 75.5943 86.5021 65.2041C87.1661 76.3155 87.3503 90.0998 85.1178 98.3657H92.3898Z" fill="black" fill-opacity="0.1"/>
</svg>
