<svg width="199" height="269" viewBox="0 0 199 269" fill="none" xmlns="http://www.w3.org/2000/svg">
<path fill-rule="evenodd" clip-rule="evenodd" d="M95.4481 51.5045C91.1775 53.9169 86.9815 55.0824 85.0118 54.6066C80.0727 53.4135 79.6186 36.4802 83.4402 29.8046C87.2618 23.129 106.908 20.2194 107.898 33.4459C108.242 38.0364 106.185 42.1331 103.146 45.4759L108.595 69.2769H92.7675L95.4481 51.5045Z" fill="#B28B67"/>
<path fill-rule="evenodd" clip-rule="evenodd" d="M92.4618 22.1105C94.5478 21.7899 100.165 21.5695 101.2 21.5696C101.862 21.5696 102.58 21.7113 102.972 21.1417C103.293 20.6753 103.175 19.8864 103.271 19.3451C103.382 18.7163 103.54 18.0956 103.7 17.4765C104.155 15.7147 104.843 14.0386 105.805 12.4649C107.611 9.51258 110.257 7.19999 113.596 5.8543C117.285 4.36844 121.458 4.02821 125.425 4.32959C129.671 4.65204 133.514 5.96543 137.522 7.20141C141.342 8.3792 145.342 8.8428 149.337 8.26764C153.362 7.68821 156.404 5.6437 159.799 3.70321C163.274 1.71661 167.246 0.417305 171.355 0.715984C175.191 0.994884 178.726 2.47903 181.897 4.46164C184.865 6.31662 187.313 8.54839 188.695 11.6894C190.182 15.0683 190.181 18.7771 187.736 21.7631C184.191 26.0915 177.611 27.2108 172.136 27.0995C168.97 27.0354 165.86 26.4936 162.87 25.5082C158.883 24.194 155.438 21.9665 151.708 20.1592C149.958 19.3111 148.148 18.6146 146.252 18.1128C144.411 17.6257 142.599 17.4023 140.932 18.4442C139.17 19.5464 137.59 20.6292 135.574 21.3192C133.639 21.9811 131.59 22.3514 129.529 22.3364C125.519 22.3074 121.566 21.1365 117.671 20.3521C114.495 19.7127 111.097 19.0753 107.859 19.69C106.507 19.9466 104.534 20.4762 104.046 21.7922C112.259 23.1872 115.485 32.7068 113.17 39.6951C111.92 43.467 104.408 47.8762 101.487 45.8933C99.6365 44.6371 100.76 42.9879 101.487 41.8992C102.879 39.8143 103.356 37.1361 100.779 35.6845C98.557 34.4326 96.2205 37.4056 96.1763 37.4023C95.5655 37.3572 90.2878 34.56 86.6516 30.4782C83.0644 30.6774 82.5202 28.4608 83.3767 26.648C84.2333 24.8352 89.5795 22.5537 92.4618 22.1105Z" fill="#191847"/>
<path fill-rule="evenodd" clip-rule="evenodd" d="M121.36 120.575C120.171 135.785 43.5655 180.565 43.1186 181.821C42.8206 182.659 66.9631 234.777 66.9631 234.777L60.2665 237.215C60.2665 237.215 23.2362 182.019 25.1382 176.138C27.8613 167.717 84.5755 120.737 84.5755 120.737L121.36 120.575Z" fill="#B28B67"/>
<path fill-rule="evenodd" clip-rule="evenodd" d="M65.2008 226.93L54.2677 230.66C31.2137 206.283 22.1771 186.169 23.8248 175.921C25.4725 165.673 83.0571 120.613 83.0571 120.613L122.144 120.613C120.811 155.836 49.8067 181.956 48.857 183.457C47.9073 184.958 57.2536 199.659 65.2008 226.93Z" fill="#2F3676"/>
<path fill-rule="evenodd" clip-rule="evenodd" d="M66.9505 233.959C67.8065 233.229 69.1425 233.258 69.8955 234.135C70.7225 235.098 71.6613 236.3 71.979 237.118C72.5892 238.689 73.2011 241.893 73.2011 241.893C71.2565 242.556 38.2482 253.815 38.2482 253.815C38.2482 253.815 35.2463 250.059 38.051 248.721C40.8557 247.383 42.692 246.45 42.692 246.45L56.0652 234.335C56.4661 233.972 57.1035 234.001 57.4926 234.4L59.2133 236.166C59.2133 236.166 62.3923 236.427 64.0912 235.848C64.9516 235.554 66.063 234.716 66.9505 233.959Z" fill="#E4E4E4"/>
<path fill-rule="evenodd" clip-rule="evenodd" d="M112.552 120.575L146.678 197.354L180.218 262.263H172.305L85.7285 120.575H112.552Z" fill="#997659"/>
<path fill-rule="evenodd" clip-rule="evenodd" d="M178.258 258.817C179.314 258.41 180.538 258.864 180.925 259.928C181.352 261.101 181.798 262.536 181.798 263.41C181.798 265.081 181.204 268.289 181.204 268.289C179.135 268.289 144.008 268.289 144.008 268.289C144.008 268.289 142.558 263.796 145.682 263.438C148.806 263.08 150.872 262.791 150.872 262.791L167.874 255.688C168.377 255.478 168.956 255.709 169.175 256.208L170.15 258.424C170.15 258.424 173.042 259.688 174.85 259.688C175.774 259.688 177.142 259.248 178.258 258.817Z" fill="#E4E4E4"/>
<path fill-rule="evenodd" clip-rule="evenodd" d="M177.19 248.779L159.606 251.869C146.011 233.137 89.1138 156.331 82.8756 120.575H122.02C142.853 146.423 164.231 229.737 177.19 248.779Z" fill="#5C63AB"/>
<path fill-rule="evenodd" clip-rule="evenodd" d="M29.3024 93.8159L53.1986 103.651L45.5684 112.812L27.6715 99.9523C18.7323 98.4136 14.5866 97.0916 15.2344 95.9865C15.7806 95.0548 16.7968 95.0022 17.7329 94.9539C18.4621 94.9162 19.1427 94.881 19.5145 94.4346C20.3635 93.4153 18.2681 90.2664 16.1433 87.3579C14.0184 84.4494 16.01 84.5545 17.1757 84.9023C21.0741 86.9355 25.1163 89.9067 29.3024 93.8159ZM136.294 108.873L149.808 106.36C158.973 128.998 164.437 141.404 166.2 143.577C167.493 145.171 175.466 149.275 180.862 151.467C183.028 152.347 182.563 154.062 181.928 154.611C177.92 158.073 174.195 156.859 170.14 155.539C168.966 155.156 167.764 154.765 166.52 154.475C163.3 153.726 162.32 155.278 161.394 156.745C160.574 158.043 159.796 159.275 157.543 158.783C157.645 158.369 157.771 157.905 157.907 157.404C158.785 154.165 160.081 149.388 158.159 146.613C157.173 145.189 149.884 132.609 136.294 108.873Z" fill="#B28B67"/>
<path fill-rule="evenodd" clip-rule="evenodd" d="M99.5635 58.975L93.8609 58.0584C81.4399 69.3502 76.3711 96.4784 68.0935 100.069C60.2673 103.464 49.173 100.179 35.9858 95.743L31.9473 104.199C43.9292 116.347 69.4552 126.611 79.8019 120.752C96.3443 111.384 100.163 77.9254 99.5635 58.975Z" fill="#DB2721"/>
<path fill-rule="evenodd" clip-rule="evenodd" d="M124.423 126.137C124.423 126.137 90.1248 126.137 73.9649 126.137C71.6592 126.137 72.0936 123.017 72.4269 121.443C76.2736 103.272 91.2897 83.6844 91.2897 57.8186L105.844 55.6797C117.883 73.8246 122.046 96.1646 124.423 126.137Z" fill="#DDE3E9"/>
<path fill-rule="evenodd" clip-rule="evenodd" d="M106.617 55.6797H106.783C139.428 74.5329 159.158 103.758 165.971 143.355L155.394 145.297C148.388 137.647 139.742 125.129 129.456 107.74C132.612 118.215 134.916 128.958 135.634 139.116H90.2139C81.421 118.291 101.02 55.6797 101.02 55.6797H104.156H106.617Z" fill="#FF4133"/>
</svg>
