<svg width="16" height="16" viewBox="0 0 16 16" fill="none" xmlns="http://www.w3.org/2000/svg">
<path d="M3.52083 6.99583C4.72083 9.35417 6.65 11.2833 9.0125 12.4833L10.8458 10.6458C11.075 10.4167 11.4042 10.35 11.6917 10.4417C12.625 10.75 13.6292 10.9167 14.6667 10.9167C15.1292 10.9167 15.5 11.2875 15.5 11.75V14.6667C15.5 15.1292 15.1292 15.5 14.6667 15.5C6.84167 15.5 0.5 9.15833 0.5 1.33333C0.5 0.870833 0.875 0.5 1.33333 0.5H4.25C4.7125 0.5 5.08333 0.870833 5.08333 1.33333C5.08333 2.37083 5.25 3.375 5.55833 4.30833C5.65 4.59583 5.58333 4.925 5.35417 5.15417L3.52083 6.99583Z" fill="black"/>
</svg>
