<svg width="291" height="338" viewBox="0 0 291 338" fill="none" xmlns="http://www.w3.org/2000/svg">
<path fill-rule="evenodd" clip-rule="evenodd" d="M126.065 64.1601C131.591 67.4883 137.02 69.0963 139.569 68.4399C145.96 66.7938 146.547 43.4318 141.602 34.2218C136.657 25.0118 111.236 20.9974 109.955 39.2454C109.51 45.5787 112.172 51.2308 116.104 55.8428L109.053 88.6798H129.533L126.065 64.1601Z" fill="#915B3C"/>
<path fill-rule="evenodd" clip-rule="evenodd" d="M114.53 59.9506C111.96 48.5237 104.637 40.7343 105.755 35.6269C106.874 30.5195 111.717 29.2747 111.717 29.2747C111.717 29.2747 114.222 19.1491 127.874 20.661C141.527 22.173 149.859 27.8385 146.261 40.3049C142.953 40.3049 138.96 39.1095 133.438 41.1576C130.81 42.1324 129.678 47.2033 129.678 47.2033H127.183C127.183 47.2033 123.55 41.1855 120.019 42.7805C116.488 44.3756 118.414 50.5293 118.414 50.5293L117.185 59.9506H114.53Z" fill="#191847"/>
<path fill-rule="evenodd" clip-rule="evenodd" d="M54.2267 195.266C45.3901 195.266 38.2267 202.43 38.2267 211.266V285C38.2267 293.836 45.3901 301 54.2267 301H147.667C156.503 301 163.667 293.836 163.667 285V211.266C163.667 202.43 156.503 195.266 147.667 195.266H54.2267ZM66.12 219.142C63.9109 219.142 62.12 220.932 62.12 223.142V273.125C62.12 275.334 63.9109 277.125 66.12 277.125H135.773C137.982 277.125 139.773 275.334 139.773 273.125V223.142C139.773 220.932 137.982 219.142 135.773 219.142H66.12Z" fill="#C5CFD6"/>
<path fill-rule="evenodd" clip-rule="evenodd" d="M248.282 296.737C231.458 276.207 220.074 260.988 214.131 251.078C203.955 234.11 195.627 219.012 192.998 213.245C186.731 199.492 207.427 193.052 212.111 199.466C219.201 209.176 234.341 239.728 257.533 291.124L248.282 296.737Z" fill="#B28B67"/>
<path fill-rule="evenodd" clip-rule="evenodd" d="M213.806 290.768L182.496 212.01C175.799 197.653 208.139 188.216 213.06 194.898C224.234 210.067 250.791 269.906 254.12 274.425L213.806 290.768Z" fill="#2F3676"/>
<path fill-rule="evenodd" clip-rule="evenodd" d="M130.415 274.973C136.514 266.083 158.699 236.174 170.783 223.798C174.255 220.242 177.643 216.829 180.848 213.648C190.373 204.194 209.34 220.084 199.833 228.696C176.156 250.141 141.609 279.092 138.723 281.673C134.677 285.291 126.582 280.56 130.415 274.973Z" fill="#915B3C"/>
<path fill-rule="evenodd" clip-rule="evenodd" d="M134.556 271.57C133.856 270.633 132.514 270.408 131.622 271.167C130.247 272.337 128.424 274.011 127.741 275.192C126.587 277.19 125.039 281.406 125.039 281.406C127.357 282.744 166.72 305.453 166.72 305.453C166.72 305.453 171.446 301.023 168.193 298.575C164.939 296.128 162.823 294.447 162.823 294.447L148.525 274.763C148.194 274.307 147.552 274.214 147.106 274.558L144.236 276.766C144.236 276.766 140.122 276.407 138.096 275.238C136.94 274.571 135.542 272.89 134.556 271.57Z" fill="#E4E4E4"/>
<path fill-rule="evenodd" clip-rule="evenodd" d="M243.702 292.842C242.627 292.381 241.353 292.857 240.96 293.959C240.355 295.66 239.613 298.02 239.613 299.385C239.613 301.691 240.382 306.116 240.382 306.116C243.06 306.116 288.512 306.116 288.512 306.116C288.512 306.116 290.388 299.919 286.346 299.425C282.304 298.93 279.63 298.532 279.63 298.532L257.398 288.628C256.883 288.399 256.281 288.64 256.066 289.16L254.686 292.506C254.686 292.506 250.944 294.251 248.605 294.251C247.268 294.251 245.217 293.493 243.702 292.842Z" fill="#E4E4E4"/>
<path fill-rule="evenodd" clip-rule="evenodd" d="M171.229 215.944C171.229 215.944 132.193 209.589 118.935 207.253C93.7424 202.815 86.3959 189.268 90.7395 159.711L137.157 159.711C146.371 162.37 214.156 192.599 214.156 192.599C222.287 196.632 220.773 208.523 219.287 212.441C219.196 212.681 178.167 282.849 178.167 282.849L140.195 258.677L171.3 218.792C171.3 218.792 172.533 216.312 171.229 215.944Z" fill="#5C63AB"/>
<path fill-rule="evenodd" clip-rule="evenodd" d="M201.793 168.522L174.573 148.549L168.556 163.412L195.511 174.581C203.134 183.529 207.397 187.259 208.299 185.772C209.06 184.517 208.465 183.343 207.917 182.261C207.491 181.419 207.093 180.633 207.386 179.908C208.055 178.255 213.176 178.429 218.029 178.802C222.881 179.174 221.467 177.017 220.297 175.952C215.344 172.989 209.176 170.512 201.793 168.522ZM59.0462 203.715C61.5469 198.646 70.0628 149.238 70.0628 149.238L87.8952 149.308C87.8952 149.308 71.3791 202.585 70.0628 205.844C68.3527 210.079 71.2574 216.232 73.2271 220.404C73.5318 221.049 73.8141 221.647 74.0535 222.183C71.3205 223.405 70.0077 221.928 68.6237 220.371C67.0604 218.612 65.4063 216.751 61.5123 218.561C60.0079 219.261 58.5843 220.088 57.1935 220.895C52.3893 223.686 47.9758 226.249 41.972 222.548C41.0201 221.961 39.9771 219.751 42.4972 218.024C48.7758 213.722 57.8237 206.193 59.0462 203.715Z" fill="#915B3C"/>
<path fill-rule="evenodd" clip-rule="evenodd" d="M120.74 74.4672L128.119 73.2025C155.496 96.8352 166.741 142.236 200.3 166.287L192.223 176.292C134.005 169.089 119.575 113.71 120.74 74.4672Z" fill="#E87613"/>
<path fill-rule="evenodd" clip-rule="evenodd" d="M88.5734 167.127C88.5734 167.127 132.953 167.127 153.863 167.127C156.847 167.127 156.284 162.823 155.853 160.651C150.876 135.581 131.446 108.557 131.446 72.8716L112.613 69.9207C97.0363 94.9543 91.6495 125.776 88.5734 167.127Z" fill="#DDE3E9"/>
<path fill-rule="evenodd" clip-rule="evenodd" d="M91.0748 94.2333C87.6481 93.9886 84.5551 92.5557 82.5999 89.0305C75.7166 76.6195 78.2025 69.7863 85.5586 67.5402C89.6037 66.3051 93.408 67.1481 97.962 68.1572C101.69 68.9833 105.92 69.9206 111.195 69.9206C111.706 69.9206 112.171 69.9549 112.593 70.0203L118.842 70.3766C118.842 70.3766 144.215 156.303 132.838 185.034H81.2319C78.2976 192.076 75.4202 198.221 72.7089 202.94H58.7066C57.2001 154.268 75.6414 116.816 91.0748 94.2333Z" fill="#FF9B21"/>
<path fill-rule="evenodd" clip-rule="evenodd" d="M81.2319 185.034C85.0819 175.794 89.0299 165.01 92.8291 153.872C94.2434 166.137 96.5986 178.457 100.52 185.034H81.2319Z" fill="black" fill-opacity="0.1"/>
</svg>
